<svg id="svg2" xmlns="http://www.w3.org/2000/svg" viewBox="0 0 792.95 168.46">
    <g id="g10">
        <g id="g12">
            <path id="path14" d="M234,42.71c7,0,14.09,0,21.13-.12,2.08,0,2.89.68,3.46,2.59q10.36,34.52,20.87,69c.39,1.3.83,2.58,1.49,4.6,2.14-5.84,4.06-11,5.94-16.25q10.24-28.43,20.41-56.89c.78-2.18,1.74-3.14,4.21-3,5.56.21,11.14.18,16.71,0,2.69-.08,3.13.49,2.11,3.06-8.13,20.48-16.12,41-24.15,61.54-3.33,8.5-6.7,17-9.92,25.53-.84,2.24-1.87,3.29-4.5,3.21-7.56-.21-15.14-.18-22.7,0-2.45.05-3.42-.81-4.18-3.06q-14.78-43.51-29.75-87c-.3-.88-.75-1.71-1.13-2.56v-.63" fill="#51abe4">
            </path>
            <path id="path16" d="M792.95,124.1c-1.46,3.19-1.47,6.67-1.91,10-.31,2.35-1,3.34-3.67,3.19-12-.66-21.66-5.21-28.65-15.23-3.53-5.06-7.5-9.81-11.84-15.45v4.1c0,7.47-.07,14.93,0,22.4,0,2-.52,2.79-2.62,2.74-5.67-.11-11.36-.1-17,0-1.85,0-2.56-.44-2.56-2.45q.08-47.31,0-94.63c0-2,.56-2.51,2.49-2.47,5.67.12,11.36.16,17,0,2.36-.07,2.7.84,2.69,2.9-.08,15.77,0,31.54,0,47.31v4c3.29-4.37,6-8,8.77-11.65q4.91-6.56,9.81-13.14c.62-.83,1.14-1.75,2.43-1.74,7.32,0,14.65,0,22.64,0L776.87,81.17c-3.67,4.6-7.3,9.24-11,13.78-1.17,1.43-1.47,2.42,0,4,3.89,4.13,7.57,8.46,11.36,12.68,4.28,4.77,9.84,7.4,15.79,9.36v3.15" fill="#51abe4">
            </path>
            <path id="path18" d="M15.38,41.92l27.72,54.3c1-3.43,1.88-6.15,2.68-8.89Q58.25,45,70.65,2.7C71.28.53,72.18,0,74.34,0c12,.11,24.06.05,36.09.05h2.84c-2.15,7.33-4.21,14.39-6.29,21.44Q85.8,93.32,64.68,165.16c-.75,2.57-1.75,3.35-4.41,3.3-10.13-.18-20.27-.12-30.41,0a3.12,3.12,0,0,1-3.38-2.17q-12.91-28.89-26-57.71a4.64,4.64,0,0,1-.39-3.24C5.2,84.45,10.19,63.58,15.38,41.92" fill="#51abe4">
            </path>
            <path id="path20" d="M206.06.33c-1.9,6.51-3.77,13-5.69,19.53q-21.51,72.89-43,145.79c-.61,2.09-1.43,2.79-3.65,2.77-12.41-.12-24.82-.06-37.23-.06-.46,0-.93-.07-1.71-.12,1.82-6.2,3.6-12.25,5.38-18.3,4.05-13.78,8.06-27.58,12.21-41.33.71-2.34.3-2.93-2.13-2.91-10.7.1-21.41,0-32.11,0-3.75,0-3.78,0-2.79-3.74,3-11.23,6.05-22.45,9-33.7.52-2,1.38-2.74,3.47-2.71,11.36.18,22.72.15,34.08.39,2.49.05,3.39-.85,4-3.11,5.86-20.25,11.84-40.46,17.78-60.68.36-1.22.68-2.16,2.39-2.15C179.16.1,192.23.08,205.3.1a3.72,3.72,0,0,1,.76.23" fill="#6ac0eb">
            </path>
            <path id="path22" d="M485.88,89.08c0-14.51.06-29-.05-43.53,0-2.39.67-3,3-3,5.67.17,11.35.14,17,0,2.08,0,2.67.6,2.65,2.66-.09,10.62.07,21.24-.12,31.86-.05,2.89.86,3.46,3.55,3.42,11-.15,22.08-.13,33.12,0,2.43,0,3.23-.56,3.19-3.11-.15-10.62,0-21.24-.12-31.86,0-2.39.65-3,3-3,5.78.17,11.56.11,17.34,0,1.72,0,2.37.4,2.37,2.26q-.08,44.31,0,88.63c0,2.09-.82,2.41-2.6,2.39-5.78-.08-11.56-.12-17.35,0-2.31.06-2.78-.85-2.76-3,.09-10.83,0-21.66.09-32.49,0-2.32-.55-3-3-3q-17,.2-34.06,0c-2.24,0-2.82.69-2.8,2.86.1,10.73-.07,21.45.12,32.17.05,2.9-.87,3.53-3.56,3.42-5.25-.21-10.52-.24-15.77,0-3,.15-3.43-1-3.4-3.63.11-14.41.05-28.81.05-43.21" fill="#51abe4">
            </path>
            <path id="path24" d="M431.11,70.48c2.39-1.38,4.69-2.77,7-4.06a35.06,35.06,0,0,1,24.08-3.79c10.2,1.94,14.89,7.5,15.89,17.87.79,8.18.43,16.38.5,24.57.07,9.24-.06,18.5.07,27.74,0,2.27-.48,3.18-2.94,3.1-5.46-.17-10.93-.15-16.39,0-2.19.06-2.85-.59-2.84-2.81.1-13.24,0-26.48.05-39.72a31.64,31.64,0,0,0-.52-6.58c-.8-3.78-2.54-5.35-6.46-5.64a38.26,38.26,0,0,0-15.77,2.29c-2.28.8-3.21,1.85-3.18,4.47.16,14.92,0,29.84.13,44.77,0,2.4-.53,3.32-3.1,3.24-5.46-.18-10.93-.12-16.39,0-1.93,0-2.75-.36-2.75-2.59q.13-33.57,0-67.15c0-2,.66-2.5,2.54-2.47,5.46.1,10.93.18,16.39,0,2.65-.1,3.6.7,3.29,3.32a5.45,5.45,0,0,0,.34,3.5" fill="#51abe4">
            </path>
            <path id="path26" d="M696.42,62.27a45.14,45.14,0,0,1,20,3.45c2,.83,2.46,1.74,1.61,3.8-1.49,3.58-2.75,7.26-3.92,11-.62,2-1.47,2.36-3.41,1.61A37.68,37.68,0,0,0,694.88,80c-8.66.43-14.24,5.55-15.6,14.05a41.89,41.89,0,0,0,.11,13.17c1.07,6.88,5.16,10.7,12.35,11.91a56.26,56.26,0,0,0,20.64-.83c2.12-.43,2.73,0,3,2.11.54,3.95,1.26,7.87,2.13,11.76.41,1.82.16,2.51-1.8,3a76.41,76.41,0,0,1-35.88.21c-13.87-3.23-21.6-12.39-23.19-26.74-.78-7-1-14,1-20.94,4-14.45,16.45-24.26,32.19-25.35,2.2-.15,4.41,0,6.61,0" fill="#51abe4">
            </path>
            <path id="path28" d="M374.42,108c0-.94-.23-1.74-1.36-1.67-5.3.32-10.72-.62-15.9,1.2-3.56,1.25-5.17,3.77-4.77,7.17.32,2.78,2.69,4.73,6.28,5.09a31.82,31.82,0,0,0,10.28-1c5.48-1.27,5.48-1.26,5.47-6.74C374.42,110.68,374.41,109.32,374.42,108ZM396,99.13c0,5.15.18,10.31-.07,15.46-.15,3.21,1.06,4.87,4.14,4.94,2,0,2.42.87,2.29,2.68-.3,4.08-.46,8.18-.62,12.28,0,1.07-.23,1.83-1.52,1.87-6.74.22-13.48.31-19.7-2.9a5.78,5.78,0,0,1-2.63-2.17c-1.28-2.74-2.56-1.66-4.27-.48a32.39,32.39,0,0,1-28.81,4.69c-8.63-2.54-13.39-8.75-13.93-17.78-.63-10.53,3-17.22,11.54-21C348,94.18,354,93.51,360,93.3c4.1-.15,8.2-.11,12.3,0,1.64,0,2.13-.53,2.2-2.17C374.73,84.49,372.68,82,366,81c-8.08-1.13-15.91.6-23.7,2.29-2.15.47-3,.2-3.47-2-.89-3.88-2-7.71-3.15-11.54-.42-1.41-.1-2.08,1.31-2.59,14.35-5.26,29-6.85,44-3.29,10,2.4,14.72,8.75,15,19.12.13,5.36,0,10.72,0,16.09h0" fill="#51abe4">
            </path>
            <path id="path30" d="M606.47,107.29c-3.69,1.22-5.68,3.94-5.3,7.21.35,3,2.93,5,6.83,5.29s7.69-.62,11.51-1.32c2.79-.51,3.95-1.53,3.82-4.67-.3-7.53-.09-7.53-8.85-7.4a25.16,25.16,0,0,0-8,.89Zm38.34-8.92c0,5.36.17,10.73-.06,16.07-.15,3.35,1.18,5,4.39,5.1,2.08,0,2.29.84,2.13,2.71-.35,3.86-.39,7.76-.49,11.65,0,1.63-.63,2.51-2.4,2.55-5.58.11-11.13,0-16.49-1.82-2.12-.7-4.27-1.72-5.32-3.72-1.19-2.27-2.22-1.37-3.57-.41-8.87,6.26-18.56,8.07-29,5-8.79-2.55-13.69-8.77-14.28-17.86C579,107.31,583,100.3,591.64,96.55c6.09-2.63,12.57-3.17,19.11-3.28,3.36-.06,6.73-.13,10.09,0,2,.1,2.42-.66,2.44-2.52,0-6.73-1.59-8.79-8.35-9.75-8.06-1.15-15.89.61-23.68,2.28-2.1.45-3,.26-3.48-2-.83-3.78-2-7.5-3.06-11.23-.45-1.53-.36-2.33,1.45-3a77.64,77.64,0,0,1,42.44-3.57c10.64,2.12,15.88,8.49,16.15,19.38.13,5.15,0,10.3,0,15.45h.06" fill="#51abe4">
            </path>
        </g>
    </g>
</svg>

